<?xml version="1.0" encoding="UTF-8"?><svg id="a" xmlns="http://www.w3.org/2000/svg" viewBox="0 0 1509.45 526.372"><defs><style>.b{fill:#6f018a;}.c{fill:#02113b;}.d{fill:#f4258a;}.e{fill:#03d2b6;}.f{fill:#f7611c;}.g{fill:#9a1063;}.h{fill:#f8bf1f;}.i{fill:#77055a;}.j{fill:#e92133;}.k{fill:#0195ad;}.l{fill:#013375;}.m{fill:#005c8b;}.n{fill:#017da3;}.o{fill:#920122;}.p{fill:#fff;}.q{fill:#f9841f;}.r{fill:#c41f1a;}.s{fill:#762053;}.t{fill:#f9a51c;}.u{fill:#011e5b;}.v{fill:#cb1962;}.w{fill:#c30169;}.x{fill:#e83c16;}.y{fill:#0488c2;}.z{fill:#c91a72;}.aa{fill:#02eaed;}.ab{fill:#cb5595;}.ac{fill:#3d018a;}.ad{fill:#54fbda;}.ae{fill:#07c7dd;}</style></defs><path class="p" d="M614.127,188.637v45.673h-8.421l-2.075-11.531c-5.423,7.843-13.956,13.033-26.527,13.033-23.99,0-41.061-18.222-41.061-41.868s17.071-41.751,41.061-41.751c13.378,0,24.681,5.651,31.946,14.879l-12.916,8.65c-4.267-5.19-10.612-8.65-19.029-8.65-16.725,0-25.375,13.494-25.375,26.872,0,13.494,8.65,26.872,25.375,26.872,14.068,0,21.682-8.188,23.99-18.568h-22.955v-13.611h35.988,0Z"/><path class="p" d="M674.654,219.776v14.534h-46.708v-80.733h15.569v66.199h31.139Z"/><path class="p" d="M763.105,193.943c0,23.645-17.183,41.868-41.057,41.868s-41.061-18.222-41.061-41.868,17.187-41.751,41.061-41.751,41.057,18.106,41.057,41.751ZM747.419,193.943c0-13.378-8.65-26.872-25.371-26.872s-25.375,13.494-25.375,26.872c0,13.494,8.65,26.989,25.375,26.989s25.371-13.494,25.371-26.989Z"/><path class="p" d="M834.248,211.014c0,14.301-10.034,23.296-28.719,23.296h-30.332v-80.733h27.334c18.451,0,28.486,8.766,28.486,21.682,0,7.498-3.115,12.916-8.878,16.376v.233c7.843,3.576,12.11,10.147,12.11,19.146h-.001ZM790.884,167.071v20.069h11.648c7.265,0,12.8-2.77,12.8-10.267,0-7.381-5.997-9.802-12.8-9.802h-11.648ZM818.33,209.974c0-7.498-5.764-10.38-12.8-10.38h-14.646v21.221h14.646c7.498,0,12.8-3.689,12.8-10.841Z"/><path class="p" d="M895.245,218.279h-33.218l-5.419,16.031h-16.609l29.064-80.733h19.146l29.064,80.733h-16.609l-5.419-16.031ZM890.517,204.323l-11.881-34.944-11.881,34.944h23.762,0Z"/><path class="p" d="M973.192,219.776v14.534h-46.708v-80.733h15.569v66.199h31.139Z"/><path class="p" d="M1060.479,234.31l-16.605-29.064h-13.611v29.064h-15.569v-80.733h27.908c18.11,0,30.103,11.07,30.103,26.411,0,10.151-5.419,17.994-14.185,22.028l19.836,32.295h-17.877ZM1030.263,191.752h12.338c8.076,0,14.072-3.689,14.072-11.764,0-7.265-5.306-11.881-14.072-11.881h-12.338v23.645h0Z"/><path class="p" d="M1135.202,219.776v14.534h-47.631v-80.733h46.592v14.53h-31.022v18.227h28.373v14.53h-28.373v18.913h32.062-.001Z"/><path class="p" d="M1197.355,218.279h-33.218l-5.419,16.031h-16.609l29.064-80.733h19.146l29.064,80.733h-16.609l-5.419-16.031ZM1192.627,204.323l-11.881-34.944-11.881,34.944h23.762Z"/><path class="p" d="M1275.302,219.776v14.534h-46.708v-80.733h15.569v66.199h31.139Z"/><path class="p" d="M586.561,358.145v14.534h-47.631v-80.733h46.592v14.53h-31.022v18.227h28.373v14.53h-28.373v18.913h32.062-.001Z"/><path class="p" d="M657.247,349.267c0,12.571-8.995,24.914-30.103,24.914-15.108,0-28.602-6.229-32.524-19.607l15.112-4.728c1.152,4.612,5.997,10.608,17.299,10.608,8.072,0,14.53-3.115,14.53-10.034,0-8.072-9.111-8.65-21.911-11.764-16.264-4.034-21.682-12.222-21.682-23.412,0-15.224,11.648-24.681,28.486-24.681,13.494,0,24.107,6.691,27.567,19.029l-15.224,3.693c-.923-4.267-5.078-8.995-13.149-8.995-6.691,0-12.226,3.46-12.226,9.918,0,9.111,10.263,10.38,17.761,12.11,19.146,4.383,26.065,9.918,26.065,22.951v-.002Z"/><path class="p" d="M717.436,306.476h-19.374v66.203h-15.686v-66.203h-19.374v-14.53h54.435v14.53h0Z"/><path class="p" d="M770.366,356.648h-33.218l-5.419,16.031h-16.609l29.064-80.733h19.146l29.064,80.733h-16.609l-5.419-16.031ZM765.638,342.692l-11.881-34.944-11.881,34.944h23.762,0Z"/><path class="p" d="M844.507,306.476h-19.374v66.203h-15.686v-66.203h-19.374v-14.53h54.435v14.53h0Z"/><path class="p" d="M903.662,358.145v14.534h-47.631v-80.733h46.592v14.53h-31.022v18.227h28.373v14.53h-28.373v18.913h32.062-.001Z"/><path class="p" d="M1004.326,349.267c0,12.571-8.995,24.914-30.103,24.914-15.108,0-28.602-6.229-32.524-19.607l15.112-4.728c1.152,4.612,5.997,10.608,17.299,10.608,8.072,0,14.53-3.115,14.53-10.034,0-8.072-9.111-8.65-21.911-11.764-16.264-4.034-21.682-12.222-21.682-23.412,0-15.224,11.648-24.681,28.486-24.681,13.494,0,24.107,6.691,27.567,19.029l-15.224,3.693c-.923-4.267-5.078-8.995-13.149-8.995-6.691,0-12.226,3.46-12.226,9.918,0,9.111,10.263,10.38,17.761,12.11,19.146,4.383,26.065,9.918,26.065,22.951v-.002Z"/><path class="p" d="M1062.325,358.145v14.534h-47.631v-80.733h46.592v14.53h-31.022v18.227h28.373v14.53h-28.373v18.913h32.062-.001Z"/><path class="p" d="M1120.785,372.679l-16.605-29.064h-13.611v29.064h-15.569v-80.733h27.908c18.11,0,30.103,11.07,30.103,26.411,0,10.151-5.419,17.994-14.185,22.028l19.836,32.295h-17.877ZM1090.569,330.121h12.338c8.076,0,14.072-3.689,14.072-11.764,0-7.265-5.306-11.881-14.072-11.881h-12.338v23.645h0Z"/><path class="p" d="M1217.075,291.946l-29.064,80.733h-19.262l-28.947-80.733h16.493l22.144,64.931,22.028-64.931h16.609-.001Z"/><path class="p" d="M1241.855,291.946v80.733h-15.569v-80.733h15.569Z"/><path class="p" d="M1314.163,350.652l12.916,8.533c-7.265,9.228-18.568,14.996-32.062,14.996-23.874,0-41.061-18.222-41.061-41.868s17.187-41.751,41.061-41.751c13.494,0,24.797,5.651,32.062,14.996l-12.916,8.533c-4.267-5.19-10.729-8.65-19.146-8.65-16.725,0-25.375,13.494-25.375,26.872,0,13.494,8.65,26.989,25.375,26.989,8.417,0,14.879-3.46,19.146-8.65Z"/><path class="p" d="M1384.5,358.145v14.534h-47.631v-80.733h46.592v14.53h-31.022v18.227h28.373v14.53h-28.373v18.913h32.062-.001Z"/><path class="p" d="M1455.186,349.267c0,12.571-8.995,24.914-30.103,24.914-15.108,0-28.602-6.229-32.524-19.607l15.112-4.728c1.152,4.612,5.997,10.608,17.299,10.608,8.072,0,14.53-3.115,14.53-10.034,0-8.072-9.111-8.65-21.911-11.764-16.264-4.034-21.682-12.222-21.682-23.412,0-15.224,11.648-24.681,28.486-24.681,13.494,0,24.107,6.691,27.567,19.029l-15.224,3.693c-.923-4.267-5.078-8.995-13.149-8.995-6.691,0-12.226,3.46-12.226,9.918,0,9.111,10.263,10.38,17.761,12.11,19.146,4.383,26.065,9.918,26.065,22.951v-.002Z"/><path class="c" d="M245.055,364.23c1.964.223,4.882-.619,6.424.714-.003.714.005,1.428,0,2.141-3.075-1.25-6.724-.691-9.993-.714v-1.428c.182-.031.474-.543.714-.714.951.009,1.904-.01,2.855,0h0Z"/><path class="u" d="M252.193,360.661c.112,3.226-7.399,2.572-8.255,1.474-.742-.951-2.702-22.796-2.503-23.99.248-1.491,3.379-2.905,4.288-2.424,1.395.738,2.909,15.773,6.47,17.089.065,2.536.185,5.338,0,7.852h0Z"/><path class="m" d="M240.058,299.275l2.141,33.549c-1.811.425-2.132.654-4.283.714l-2.141-32.835c1.631-.829,3.29-.959,4.283-1.428Z"/><path class="u" d="M245.769,296.419c-.492,4.719,1.401,35.152-.12,36.295-.654.492-2.559-.1-3.449.109l-2.141-33.549c1.41-.665,3.295-3.254,5.71-2.855h0Z"/><path class="i" d="M245.055,364.23c-.713-.016-1.428.014-2.141,0h2.141Z"/><path class="k" d="M243.627,176.501c.257.207.456.503.714.714-.978.853-1.548,1.741-2.141,2.855-2.419-.339-6.753-1.579-7.138-4.283,1.603.036,7.653-.02,8.566.714h0Z"/><path class="e" d="M274.821,122.285c-8.881,16.437-17.761,32.874-26.642,49.311-3.673-1.903-7.345-3.806-11.018-5.709l12.054-35.756s25.606-7.846,25.606-7.846Z"/><path class="c" d="M277.355,87.916c.132-.043.517-.149.85.048.042.025.085.056.129.095.005.014.011.035.019.06,1.004,3.126,1.137,5.74,1.188,7.695.06,2.275.133,5.457-.24,9.906-.206,2.456-.485,4.534-.934,7.876-.283,2.108-.543,3.864-.735,5.111l-1.185,2.723-1.005.008-.422-2.61c.778-10.304,1.556-20.607,2.334-30.911h0Z"/><polygon class="c" points="93.015 363.517 95.871 369.227 167.059 371.031 166.53 365.661 157.512 358.012 93.015 363.517"/><ellipse class="m" cx="165.478" cy="312.309" rx="28.08" ry="15.897"/><path class="ae" d="M181.527,127.962l-.709,9.276c.256,1.198.486,3.06-.062,5.138-.739,2.806-2.373,4.027-4.491,7.218-2.006,3.022-3.258,5.719-3.36,6.565-.527,4.376,5.847,13.01,6.347,17.32,1.083,16.296-44.751,99.616-48.406,121.512-.153.643-1.215,2.196-.696,2.827,1.29.626,14.682,4.058,17.827,4.312.056.02-.016.052-.027.13-.066.481,2.168,1.297,2.168,1.297,1.224.442,4.207,1.98,11.997,6.851-9.214,6.788-18.727,13.612-28.539,20.451-11.066,7.712-21.985,15.073-32.728,22.098,4.81-6.419,10.555-15.474,15.112-27.16,3.47-8.9,5.36-17.038,6.416-23.689,1.878-1.034,4.256-2.5,4-3.313-.2-.634-2.308.583-3.791-.899-.559-.558-5.825-7.172-5.893-7.651-.262-1.838,2.516-3.335,2.594-4.324.191-2.405-1.403-4.405-.827-7.19,22.315-49.538,39.76-101.363,63.066-150.77h.002Z"/><path class="e" d="M276.538,119.195c-.711.952-1.433,1.972-2.155,3.061-.812,1.226-1.545,2.419-2.204,3.566-.097-.117-.525.104-.714,0-.077-.043.342-2.232-1.058-1.42-1.024.594-.919,2.583-1.195,2.727-9.808,3.74-6.291,10.307-15.236,13.673-1.456,2.035-1.99,7.492-3.925,10.36-5.19,7.691-14.311,8.996-5.71,18.916-.847-1.72-4.536-3.557-5.71-4.997-13.532-17.654-33.038-27.756-37.807-46.601,6.163-.548.064-16.604,12.841-20.936,10.325-5.044,20.42-2.528,28.156-.966,13.314.358,26.707,2.591,36.069-8.588.277,4.436.381,9.304.193,14.538-.218,6.093-.796,11.677-1.545,16.668h0Z"/><path class="aa" d="M199.372,87.276c2.077.722,14.904,9.457,15.004,10.363.246,2.233-15.908,32.573-14.29,38.889-4.057,9.27-8.372,18.502-12.135,27.838-2.216,5.256-6.138,10.748-6.424,16.417h-.714l-32.121,75.663c-2.081,1.013-2.058,3.276-2.855,4.997-5.094,10.909-10.193,22.624-14.99,33.549,3.582-21.712,49.548-105.374,48.404-121.512-.116-1.642-8.102-9.261-6.345-17.319.439-2.013,1.063-3.226,2.926-7.837,2.237-5.536,3.768-10.101,4.695-13.025.333-2.445.667-4.891,1-7.336,2.424-5.561,14.855-39.141,17.845-40.686h0Z"/><path class="ad" d="M214.375,97.639c-.1-.906-12.927-9.642-15.004-10.363,8.949-.041,76.639-2.733,78.518.714-9.362,11.178-22.755,8.945-36.069,8.588-6.078-1.23-15.229-3.577-25.306-.015"/><path class="c" d="M169.392,364.944h29.98c-9.119,3.218-23.644-1.337-31.407,3.569.799-1.553-1.361-1.334,1.428-3.569h0Z"/><path class="c" d="M221.499,364.944l1.428,1.428c-9.743-.009-19.523-.054-29.266,0,8.75-3.05,18.673-1.109,27.838-1.428h0Z"/><path class="c" d="M223.641,364.944c5.002-.007,13.376.753,17.845,0v1.428c-6.175-.043-12.384.006-18.559,0l-1.428-1.428c.714-.001,1.428.001,2.141,0h0Z"/><path class="y" d="M105.15,307.126c-.537,1.92-.658,6.853-2.855,6.424.895-2.189,1.975-4.278,2.855-6.424Z"/><path class="s" d="M166.537,371.368l.714-.714c-.166.318-.628.531-.714.714Z"/><path class="s" d="M165.823,372.796c.063-.21.537-.468.714-.714-.12.241-.537.451-.714.714Z"/><path class="n" d="M134.416,287.14c2.639,1.005,10.298,10.152,6.431,12.123l5.704,2.866c-18.344-5.898-19.443.38-12.135-14.99h0Z"/><path class="n" d="M140.84,294.278l21.414,14.276v.714c-.131.081-.335.469-.714.714-.485-.411-.95-1.065-1.428-1.428-3.633-.692-6.376-3.761-9.993-4.997.676-2.49-2.086-1.119-3.569-1.428l-5.704-2.866c2.053-1.014.956-2.741-.007-4.985h0Z"/><path class="ae" d="M160.826,309.268c.239.237.47.481.714.714-17.887,13.302-40.467,29.897-59.245,44.256l.714-2.855c17.189-14.759,43.146-24.305,56.39-42.828.653-.122,1.003.239,1.428.714h-.001Z"/><path class="n" d="M147.978,302.13c1.684-.035,2.48-.478,2.141,1.428-2.955-1.205-1.974-1.366-2.141-1.428Z"/><path class="n" d="M201.513,134.387c-4.161,6.704,31.448,29.297,36.776,34.965l.341-4.272c1.19,1.706,5.807,3.34,5.71,5.71-.973,2.409-1.401,2.511-3.92,2.847-6.043.807-38.37,1.712-43.503.677-4.21-.86-11.963-6.514-8.254-11.376,2.824.845,3.249-2.52.714-2.141,4.074-8.69,7.279-18.207,12.135-26.411h0Z"/><path class="n" d="M202.959,124.3c5.739,7.677,12.761,16.107,21.267,24.729,9.108,9.232,18.035,16.776,26.101,22.867-.987-.069-2.408-.193-4.106-.431-3.703-.518-15.006-2.458-27.51-11.013-11.836-8.099-16.68-17.028-17.585-19.501-.823-2.248-1.189-4.497-1.189-4.497-.3-1.846-.335-3.42-.302-4.554,1.108-2.534,2.215-5.068,3.323-7.601h0Z"/><path class="m" d="M162.254,310.695c7.429-1.289,17.814-2.228,29.986-.603,8.248,1.101,15.26,3.106,20.804,5.134-10.58,13.065-18.646,15.685-24.269,15.379-4.017-.219-11.55-2.19-12.905.388-.325.618-.205,1.328-.055,1.829-5.167-5.954-6.945,8.867-9.649,9.272-2.705.404-.141-7.428-3.195-7.126,2.085,8.754-2.526,15.078-2.8,23.783-3.592,4.383-13.185.657-13.622,6.906-8.156.129-16.49.161-24.995.084-7.482-.068-14.83-.219-22.039-.443.576-3.24,1.832-7.976,4.934-12.747,4.428-6.81,8.772-7.776,22.641-17.163,8.858-5.996,8.002-6.222,21.271-15.389,5.687-3.929,10.492-7.099,13.891-9.305h.002Z"/><path class="u" d="M79.088,410.641c2.127,9.871.71,18.001-1.933,21.306-2.483,3.105-5.483,4.316-5.483,4.316-1.189.48-2.235.678-2.922.77,18.796.002,37.591.004,56.387.005l-58.532,1.428c-1.735-2.497-.873-2.654,0-5.71,4.161-7.371,8.322-14.743,12.484-22.114h0Z"/><path class="y" d="M82.281,403.553c-4.052,8.883-10.463,21.189-13.333,29.999l-5,3.333c1.763-6.173,11.804-25.751,15.354-31.748.939-1.587.647-1.978,2.978-1.584h0Z"/><path class="ae" d="M102.295,354.237c-3.147,2.281-6.249,4.732-9.279,7.138-6.088-.347,8.768-8.971,9.993-9.993,0,0-.714,2.855-.714,2.855Z"/><path class="c" d="M240.06,345.669c.599.582,1.83,15.651-.664,16.087l-62.095-.845,1.745-28.09c3.296-.317,7.394,5.461,7.875,5.621.537.179,8.533-.47,11.31.161,5.261,1.194,10.45,3.162,15.852,4.134,3.859.695,25.039,2.02,25.977,2.931h0Z"/><path class="m" d="M235.775,300.702l2.141,32.835c-8.459.237-18.318-.684-27.124-.714-.87-3.347-9.393-.749-11.421-.714-5.54.011-10.366-.942-15.704-.714l-.714-2.141c14.023-4.479,38.204-21.126,52.821-28.552h.001Z"/><path class="m" d="M146.55,365.658c.437-6.249,10.03-2.523,13.622-6.906.275-8.705,4.885-15.029,2.8-23.783.292-.029.532.017.731.122,2.18,1.154,2.058,6.909,1.864,6.93-.117.013-.478-2.129-.586-3.271-.336-3.534.767-7.748,2.936-10.18,3.447-3.865,10.801-4.591,17.451-.929-.972,5.371-2.902,12.765-6.98,20.845-3.836,7.601-8.297,13.283-11.858,17.175-6.614-1.856-13.403-.203-19.98-.003h0Z"/><path class="c" d="M221.499,364.23l2.141.714c-14.884-.314-39.158.109-54.249,0,.484-.388.306-1.188,1.7-1.366,12.394-1.581,36.703.516,50.407.652h.001Z"/><path class="c" d="M242.2,364.23c-3.458,2.399-13.773.304-18.559.715l-2.142-.715c6.89.069,13.736-.135,20.7,0h.001Z"/><path class="l" d="M135.13,365.658c-1.189.017-2.38-.008-3.569,0h3.569Z"/><path class="u" d="M187.237,331.396c-.483-.009-.83.028-1.428,0h1.428Z"/><path class="u" d="M177.244,331.396l.714-.714c-.133.01-.437.552-.714.714Z"/><path class="n" d="M209.365,260.016c-4.738,10.602-7.359,22.217-13.558,32.112-.804.647-2.01,1.396-3.511,1.468-4.63.222-7.809-6.197-11.66-10.849-3.311-4-8.801-8.726-18.382-12.024-2.905-2.409-13.815-9.3-14.221-10.071-.431-.818.798-3.063.658-4.205l32.121-75.663,28.552,79.232h0Z"/><path class="n" d="M162.254,270.723c10.3,8.543,20.838,16.751,31.407,24.983-10.58,3.92-21.362,7.641-31.407,12.848l-21.414-14.276c-.773-1.803-4.414-6.499-6.424-7.138,3.529-8.64,7.5-17.227,11.421-25.697,5.677,2.521,11.134,6.057,16.417,9.279h0Z"/><path class="k" d="M235.062,175.787c.385,2.704,4.719,3.943,7.138,4.283-11.896,21.839-23.109,55.938-32.835,79.946l-28.552-79.232h.714c.063.552,3.846,9.865,4.216,10.279.478.536,6.484-2.016,6.897-2.379,1.676-1.473,2.232-4.741,3.485-5.794,2.043-1.716,8.007-2.865,8.958-6.389,9.969-.371,19.994-.938,29.98-.714h-.001Z"/><path class="k" d="M187.951,164.366c-1.758,4.438,5.345,9.217,8.968,9.948,5.133,1.036,37.46.13,43.503-.677,2.518-.336,2.947-.438,3.92-2.847.15.378.615,1.073.714,1.428,1.408.156,2.633.759,2.836,1.588.264,1.076-1.117,2.84-3.78,3.379-4.938-2.164-15.606-1.386-20.102.658-8.543,2.766-27.32,1.007-41.769-.628.783-3.783,4.155-9.091,5.71-12.848h0Z"/><path class="k" d="M205.082,176.501c-.951,3.524-6.914,4.673-8.958,6.389-1.254,1.053-1.809,4.321-3.485,5.794-.413.363-6.418,2.915-6.897,2.379-.37-.414-4.153-9.727-4.216-10.279-.19-1.671.461-2.347.714-3.569,7.633.239,15.231-.43,22.842-.714h0Z"/><path class="n" d="M189.378,160.797c2.535-.378,2.11,2.986-.714,2.141.283-.674.418-1.436.714-2.141Z"/><path class="ae" d="M160.826,309.268c-.238-.237-.49-.462-.714-.714.24.094.476.527.714.714Z"/><path class="n" d="M162.254,310.695h-.714c.108-.069-.108-.644,0-.714.772-.655.514-.797,1.428-.714l-.714,1.428h0Z"/><path class="u" d="M249.52,170.725c.946.433-7.404,22.117-48.979,116.995-1.135.642-2.27,1.284-3.405,1.926,5.258-15.902,12.506-35.885,22.319-58.473,12.692-29.214,28.891-60.985,30.064-60.448h.001Z"/><path class="u" d="M200.085,285.712c.041.603-.391,1.948.394,2.189,3.49,1.07,22-.16,27.444-.047-10.312,3.11-23.99-3.263-32.117,4.274,1.152-1.574,2.885-4.711,3.565-6.415h.714Z"/><polygon class="u" points="95.651 376.559 62.533 438.426 137.051 439.374 95.651 376.559"/><path class="y" d="M151.457,199.334c.252.107-10.638,26.616-16.224,40.042-6.213,14.934-11.889,28.167-16.773,39.356.62,1.487,1.436,3.892,1.571,6.912.212,4.721-1.439,6.457-.085,8.389,1.62,2.313,5.415,1.869,6.429,4.762.125.355.172.659.192.828-2.561,8.424-5.773,17.593-9.83,27.278-4.022,9.603-8.264,18.257-12.435,25.94-1.821,5.923-4.749,14.663-9.147,24.95-4.433,10.367-8.133,16.123-12.848,26.411-5.234,11.421-10.469,22.842-15.704,34.262-2.005.016-4.024.043-6.056.024-2.067-.019-4.137-.047-6.078-.024,9.204-43.28,34.736-82.525,47.825-124.915,39.275-92.248,48.932-114.314,49.162-114.216h.001Z"/><path class="n" d="M202.957,124.512l-3.732,8.533.954,3.393-12.606,28.693c20.114,2.15,40.229,4.299,60.343,6.448-14.986-15.689-29.972-31.378-44.958-47.067h-.001Z"/><path class="k" d="M247.987,171.627c-.112.556-.225,1.111-.337,1.667-12.643,28.723-25.286,57.446-37.928,86.17-9.645-26.217-19.29-52.433-28.935-78.65,2.484-5.766,4.968-11.532,7.452-17.298,19.916,2.704,39.832,5.408,59.749,8.112h0Z"/><path class="n" d="M180.586,181.204l-50.82,116.84,31.511,12.51,35.05-18.459c4.466-10.894,8.931-21.789,13.397-32.683-9.713-26.069-19.425-52.139-29.138-78.208h0Z"/><path class="m" d="M238.891,298.079l2.253,38.071c-23.66-.995-47.321-1.99-70.981-2.985,22.909-11.695,45.819-23.39,68.728-35.086h0Z"/><path class="l" d="M98.773,368.828c-1.041,2.577-2.081,5.154-3.122,7.731l41.4,62.814.934-.908c9.691-22.478,19.383-44.956,29.074-67.434-22.762-.735-45.524-1.469-68.286-2.203Z"/><path class="c" d="M167.059,371.031l5.12-4.564c26.579.247,53.158.494,79.738.74.395-2.168.791-4.335,1.186-6.503-.784-21.845-1.568-43.691-2.352-65.536l-3.334.342-7.36,3.763-6.104,31.004-5.687,3.377-52.396-2.662-9.341,34.667.529,5.371h.001Z"/><path class="ae" d="M157.311,311.173l43.4-23.57c15.417-.337,30.835-.675,46.252-1.012.155,3.042.31,6.084.465,9.125-12.956,6.715-25.911,13.431-38.867,20.146l-51.251-4.69h.001Z"/><polygon class="c" points="137.051 439.374 139.402 439.205 172.179 366.468 169.392 364.944 137.051 439.374"/><path class="c" d="M54.264,439.317l84.657,1.056.48-1.168c-28.261-.485-56.522-.97-84.783-1.455-.118.522-.237,1.045-.355,1.567h.001Z"/><path class="f" d="M306.843,180.623c2.537-7.973,6.376-12.395,9.432-14.964,6.215-5.225,13.834-6.688,13.564-9.773-.1-1.137-1.288-1.997-3.665-3.717-2.505-1.813-3.861-1.886-6.641-3.868-.978-.697-1.625-1.269-3.11-2.639-3.825-3.529-5.738-5.294-7.834-7.449-2.569-2.641-9.196-9.013-27.379-25.689-1.477.399-3.501,1.036-5.805,2.061-1.481.659-6.352,2.935-11.431,7.656-1.919,1.783-4.381,4.393-6.741,7.956-3.637,6.166-6.407,10.557-8.644,13.935-1.487,2.245-3.673,5.452-4.875,10.288-.367,1.478-.582,2.861-.631,3.458-.614,7.433,13.942,18.466,28.298,22.967,14.643,4.591,27.904,2.02,35.463-.222h-.001Z"/><path class="h" d="M321.738,133.953c2.928,2.519,9.186,8.644,9.389,16.775.037,1.466.11,3.887-1.256,4.66-1.915,1.084-5.424-1.364-12.154-7.412-4.393-3.948-10.245-9.507-16.836-16.714l-20.391-19.287c11.539-2.534,16.571-.445,18.989,2.16,3.28,3.532,1.958,8.232,7.562,16.35,2.26,3.274,3.93,4.617,5.937,5.21,3.924,1.158,7.611-1.005,8.76-1.742h0Z"/><path class="d" d="M247.3,290.485c28.525,8.205,43.483,45.858,39.427,49.033-3.545,2.776-25.842-17.487-40.381-38.519-3.175-4.594-5.64-8.731-7.47-12.028,1.909.146,4.91.503,8.425,1.514h0Z"/><path class="f" d="M460.611,242.466c-.592,17.867-.861,38.999-.673,57.287,0,6.793-.201,14.302.674,20.893l-1.338,32.345c-8.049-11.416-44.411-47.131-52.58-52.564v-.674c.822-.085,1.325-.421,2.022-.674,6.919-.205,14.775.373,21.567.674,3.837,4.574,11.197,5.323,15.537,7.041,1.905.754,4.5,3.796,6.713,4.132,2.47.375,4.967-2.253,5.378-1.733.538.68-1.227,3.925,1.352,3.366v-12.805c0-.877-15.717-.62-17.523-.674-10.127-1.489-13.069-4.339-13.818-6.738-.815-2.611.497-6.188-1.849-8.275-.825-.734-1.373-.634-2.518-1.235-2.975-1.561-4.158-4.8-5.082-7.327-2.574-7.043-1.417-15.052-.996-17.538,6.412,2.052,10.395,13.865,12.805,20.219.108.284.602,1.695.927,1.637.429-.076.293-2.664.28-3.096-.076-2.617,2.024-7.619,11.608-18.091.421-.282,2.261.968,2.677.685.699-.474,6.733-12.994,8.097-14.833.911-.088,1.989-.262,3.173-.595,1.441-.406,2.637-.935,3.567-1.427h0Z"/><path class="v" d="M307.62,232.357c.302,30.296-1.688,62.742-.023,92.693.047.838.581,10.438,2.718,8.402,2.761,13.228,9.572,23.549,22.915,27.633-1.131,1.009-2.825,2.252-5.106,3.01-8.93,2.969-21.012-3.432-26.455-12.199-6.489-10.453-3.925-24.893-1.565-38.189.146-.822.601-3.182.936-6.492.355-3.501.252-4.868.514-7.822.178-2.005.536-4.894,1.347-8.401,2.987-5.63-45.181-42.252-49.874-50.547,1.77.69,3.573,1.931,3.808,1.98,2.429.505,16.895,1.161,19.26.529,5.667-1.515,8.576-7.821,13.326-11.271,3.153.027,6.231,1.113,9.431.67.653-2.735-3.059-.091-2.686-2.344,4.679-4.004-.308-8.901,5.386-15.175,2.446,4.988,1.823,12.988,6.066,17.523h.002Z"/><path class="h" d="M325.817,88.802c51.984-11.897,110.167,15.033,133.446,62.679-3.41.104-6.691-.554-10.109-.674-6.726-12.673-12.861-15.884-17.384-16.304-4.802-.447-10.319,2.016-15.845-1.424-2.182-1.358-2.12-2.238-4.305-3.606-4.717-2.953-9.437-1.623-14.752-1.342-14.079.744-17.831-6.639-37.793-6.343-.675.01-1.228.027-1.581.039-.225-4.044-.449-8.088-.674-12.131-9.212-6.741-18.424-13.482-27.636-20.223,1.052,5.095,1.95,10.58,2.589,16.426,1.625,14.854,1.159,28.166-.112,39.31-3.481,1.502-5.118,1.1-5.969.463-3.082-2.306,1.357-9.772,1.622-23.626.159-8.283-1.395-7.346-.657-13.052,0,0,1.551-11.987.886-18.149-.013-.124-.047-.415-1.726-2.043h0Z"/><path class="d" d="M253.36,302.51c3.318,1.401,45.698,19.302,46.813,19.952.067.039.459.292.819.532.75.499.911.642,1.024.847.241.439.127.926.098,1.072-.692,3.508.37,7.148.276,10.722-.111,4.232.697,11.807,3.081,15.667,6.303,10.207,23.296,9.963,27.759,9.783,11.887,3.638,23.019,1.624,33.698-4.044v.674c-1.459.677-6.128,2.956-4.713,4.04l33.02.004c-2.366,2.567-5.67,5.653-10.054,8.529-3.454,2.266-6.728,3.843-9.491,4.95-4.218,1.505-2.026.737-4.718,4.044-7.898.367-14.655.322-19.923.159-13.214-.408-17.801-1.579-21.515-2.997-3.226-1.231-5.783-2.645-8.372-4.075-1.964-1.085-7.306-3.76-13.2-8.823-9.163-7.87-19.141-17.364-29.261-28.67-10.158-11.349-18.517-22.357-25.342-32.366h.001Z"/><path class="o" d="M405.345,299.754v1.348c-.819-.086-1.148-.087-1.275.059-.338.39-.108,1.165-.073,1.289.376,1.345,1.254,19.371,2.455,48.381,1.198.486,1.683,1.454,1.452,1.964-.233.515-1.186.547-1.253.549.197.923-.116,1.854-.79,2.341-.908.657-2.38.44-3.212-.665-6.408-2.406-17.312-4.106-24.263-6.74,5.648-7.325,2.864-16.066,3.37-24.937.32-5.618,1.15-13.083,2.701-18.514-.853-1.432-2.183-.826-3.375-1.031h-1.348c-8.728-.234-17.555.256-26.285,0l.992-2.704c13.105-1.338,38.262-2.175,50.903-1.34h.001Z"/><path class="q" d="M450.501,239.097c-.345.646-.943,2.096-.674,2.696-9.476-.252-19.543.335-30.047,2.148-1,.173-1.991.354-2.973.544,11.967-.781,25.261,1.064,37.064.004-2.671,6.834-5.757,11.668-8.097,14.833-2.244,3.035-3.958,4.746-7.62,9.59-2.913,3.853-5.12,7.123-6.524,9.276h-1.348c-2.41-6.354-6.394-18.167-12.805-20.219-.007-.774.008-1.906,0-2.696-.33-3.998,1.438-7.88-4.044-8.088.195-2.044-.06-2.047-2.022-2.696-13.018,4.398-23.199,4.293-25.575-.003-.523-.946-.976-2.652.162-5.71.669-.699,1.27-.915,1.712-.976.73-.101,1.266.189,2.339-.018.394-.076.667-.181.755-.212,4.567-1.617,12.52-1.167,12.52-1.167,5.499.311,23.186,1.14,47.177,2.696v-.002Z"/><path class="q" d="M451.849,241.792c-.097.027-1.208,1.813-2.022,0,.546-.121,1.827.164,2.022,0Z"/><path class="q" d="M308.311,95.935c3.704-.43,8.718-.685,8.953.268.295,1.197-6.243,3.426-20.022,9.613-5.566,2.499-6.102,2.92-10.769,4.981-7.386,3.261-9.032,3.673-12.682,5.541-3.043,1.558-15.749,13.691-17.009,13.375-.292-.073-.909-.366-1.366-1.94,5.053-6.734,10.067-11.424,13.663-14.423,4.259-3.552,18.905-15.055,39.232-17.415h0Z"/><path class="w" d="M459.957,378.023l-.674-.003c-.117-.182-.253-.297-.41-.343-1.37-.406-4.271,4.359-8.703,14.293-7.292,12.936-17.55,20.274-23.683,18.124-8.111-2.844-10.778-26.661-1.775-33.947,5.479-4.434,11.475.343,17.97-5.403,4.225-3.738,4.814-8.525,11.678-13.199,1.76-1.199,3.332-1.98,4.352-2.442.493-.04.971-.368,1.351-.668l.674.003c-.195,7.6.857,16.173-.779,23.586h-.001Z"/><path class="ab" d="M403.324,236.401c-.658.444-1.718,1.071-3.122,1.515-3.129.988-4.332-.084-7.784.526-.397.07-5.367,1-6.325,3.697-.125.351-.448,1.261.027,1.857.405.508,1.16.502,1.366.494h15.501c1.624-.141,3.37-.232,5.223-.245,1.442-.01,2.817.027,4.118.099.167.078.693.349.978.963.436.938-.077,1.836-.127,1.92-.068.132-.136.264-.204.397,0,0-.399.229-.877.161-.6-.085-1.134-.68-1.309-1.487-8.709-.239-17.669-.353-26.866-.317-9.282.036-18.321.221-27.104.533-2.818-.525-18.223-9.47-20.219-8.763l66.723-1.348v-.002Z"/><path class="s" d="M342.793,160.636c4.605-.677,8.445.832,15.374,3.65,1.66.675,3.724,1.565,6.066,2.696,23.465,16.621,7.354,27.162,29.654,26.285,12.343-.044,24.719.114,37.069,0,3.469-.038,26.925.553,27.633-.674.199-.345-.057-3.128,0-4.044h.674c-.133,1.777.099,3.614.004,5.396l-77.757.579c-12.535-47.253-70.567-36.127-72.542,10.874-.387,5.208.13,10.885,0,16.175-.139,4.148-.277,8.296-.416,12.444-.335-.555-.67-1.109-1.005-1.664-.2-4.941-.401-9.883-.601-14.824-.793-4.848-3.07-22.198,6.652-37.46,2.509-3.939,7.989-12.542,18.483-16.368,2.3-.839,4.31-1.254,5.715-1.476,1.213-.606,2.907-1.282,4.998-1.59h-.001Z"/><path class="c" d="M241.571,354.345c.155.864.311,1.728.466,2.592,1.505,3.665,3.01,7.329,4.515,10.994,2.285,8.095,7.086,20.99,17.605,33.738,15.944,19.323,35.531,26.8,44.137,29.509-.05,1.081-.101,2.162-.151,3.243-14.76-3.672-25.469-9.545-32.088-13.857-4.862-3.167-11.019-7.242-17.262-14.481-6.668-7.731-9.826-14.88-13.15-22.566-2.983-6.9-6.616-16.989-8.79-29.846.155.021.309.042,4.718.674h0Z"/><path class="c" d="M381.158,436.369c.072.297.012.785-.749,1.547-11.764,1.583-21.755,2.165-29.307,2.367-7.865.209-15.322.108-23.218-.896-4.771-.607-8.636-1.401-12.389-2.464-3.545-1.003-6.47-2.099-8.621-2.986.473-.92.946-1.84,1.42-2.76,6.102,1.74,15.677,4.017,27.59,4.857,23.314,1.645,44.469-2.996,45.274.335Z"/><path class="w" d="M378.387,348.279c3.348,1.233,7.379,2.446,12.013,3.322,5.345,1.011,10.134,1.315,14.093,1.309-.764,1.248-1.883,2.747-3.5,4.159-.584.51-1.162.946-1.713,1.319l-25.924-2.77c-2.392-.014-4.366,1.14-6.426,2.096v-.674c2.462-1.307,9.918-6.765,11.458-8.761h0Z"/><path class="t" d="M325.817,88.802c.718.693,1.641.815,1.726,2.043.377,5.489-.041,12.297.296,18.176.041.71.114-4.058-2.243-6.12-7.586-6.638-41.908,13.386-44.261,10.564-.088-.106-.618-.828-1.569-1.545-1.357-1.024-2.122-.944-2.275-1.276-.699-1.51,11.536-11.053,29.798-17.269,7.414-2.523,13.868-3.84,18.527-4.574h.001Z"/><path class="c" d="M459.136,377.476c.168-1.952.325-2.926.47-2.925.153.002.293,1.095.419,3.279-6.005,11.025-19.819,32.579-46.171,47.49-12.476,7.059-24.292,10.666-33.445,12.597.654-1.404-2.212-2.025-2.696-2.022v-.674c8.486-2.033,18.334-5.257,28.714-10.475,27.848-14.001,44.357-34.73,52.709-47.269h0Z"/><path class="s" d="M337.949,297.732c.122,1.498-.716,4.482,1.107,5.296,1.261.563,12.038.665,14.394.77,9.18.237,18.46-.22,27.633,0,1.192.205,2.522-.401,3.375,1.031-1.552,5.431-2.381,12.896-2.701,18.514-.3-1.363.237-18.197-.674-18.197h-40.101c-4.954.015-4.16-4.196-4.381-7.414h1.348Z"/><path class="t" d="M459.937,241.118c.344.317.502.689.502.689.345.795.031,1.555-.039,1.717-1.994.356-4.883.806-8.386,1.114-1.591.14-3.069.23-4.44.285-3.485.139-6.317.067-7.834.009-.495-.019-.859-.037-.955-.041-2.469-.118-9.328-.203-25.876-.164-.2-.127-.401-.254-.601-.381,21.276-3.209,36.849-5.397,37.697-5.327.42.035.81.082.811.082.814.104,1.261.236,3.171.434,3.007.311,5.236.925,5.951,1.584h0Z"/><path class="v" d="M308.968,300.428c.169,11.033-1.017,22.221,1.348,33.024-2.138,2.036-2.672-7.564-2.718-8.402-1.665-29.951.325-62.397.023-92.693h.674c-.037,22.718-.032,45.368.674,68.071h-.001Z"/><path class="c" d="M337.949,297.732h-1.348c.014-6.413-2.49-58.799.674-59.983,1.556,19.527-.905,40.668.674,59.983h0Z"/><path class="s" d="M308.968,300.428c-.177-26.188-1.938-52.845,0-78.854-.644,26.243.481,52.602,0,78.854Z"/><path class="f" d="M459.263,154.851c-.046,9.127.086,24.586,0,33.698h-.674c-1.145-12.568-1.633-24.539-.674-37.068.225.003.449-.002.674,0l.674,3.37h0Z"/><path class="r" d="M406.693,300.428c8.195,5.458,44.509,41.124,52.58,52.563l1.337-32.344c.04,5.618.071,11.236.093,16.852.022,5.656.036,11.312.041,16.969-.269-.041-.539-.082-.808-.123-7.652-5.585-49.941-52.023-54.591-52.569v-1.348c.401.087,1.089-.13,1.348,0h0Z"/><path class="ab" d="M459.263,180.461v-18.871c.254,6.212.112,12.649,0,18.871Z"/><path class="ab" d="M459.937,293.014c-.029-2.69.028-5.398,0-8.088v8.088Z"/><path class="ab" d="M459.937,266.729c-.017-1.795.018-3.597,0-5.392v5.392Z"/><path class="ab" d="M459.937,313.233c-.001-1.348.005-2.696,0-4.044v4.044Z"/><path class="f" d="M459.263,154.851l-.674-3.37h.674c.198.936-.11,2.314,0,3.37Z"/><path class="ab" d="M308.968,205.398v-2.022c-.064.663.05,1.355,0,2.022Z"/><path class="t" d="M460.611,242.466h-.674v-1.348c.694.562.546.519.674,1.348Z"/><path class="ab" d="M308.968,323.342v-1.348c.033.445-.034.903,0,1.348Z"/><path class="ab" d="M459.937,299.754v-.674c.002.23-.002.454,0,.674Z"/><path class="c" d="M336.601,299.754c-.035-.218.025-.452,0-.674v.674Z"/><path class="ab" d="M459.937,280.883v-.674c.002.227-.002.454,0,.674Z"/><path class="ab" d="M459.263,156.873v-.674c.017.223-.015.45,0,.674Z"/><path class="z" d="M382.431,245.836c1.005,4.032-4.343.471-4.037,3.022.458,3.821,8.141,5.264,8.466,5.692,4.677,6.146-7.695,16.747,9.724,5.44,5.539-3.596,10.73-7.716,16.175-11.458.706,9.202,1.309,21.127,0,30.328-.159,3.017-.067,18.777-.678,19.54-.107.134-2.028.194-3.367.679-1.08.392-1.897.625-2.022.674-7.729,2.985-21.17,1.249-21.17,1.249-20.406-2.637-23.635,1.568-28.707-1.919-13.931-9.577-1.108-49.227.004-52.573,3.837-.301,7.849-.526,12.025-.649,4.734-.139,9.269-.136,13.586-.025h.001Z"/><path class="f" d="M412.558,246.887c1.286.006,3.035.238,4.173,1.457,1.877,2.01.706,5.534.745,6.928.115,4.025.117,17.386.996,20.234.126.232,2.045,1.873,3.997,3.468,2.874,2.349,3.369,2.265,4.196,3.202,1.995,2.259.55,7.654,1.867,10.31,1.171,2.361,5.66,3.967,18.922,1.92-1.584,2.206-5.558,7.073-12.462,9.445-12.813,4.402-24.041-3.801-25.107-4.607,1.782-8.951,3.06-19.179,3.184-30.468.038-3.424-.033-6.733-.191-9.918.116-1.9.163-3.972.097-6.194-.062-2.067-.213-3.998-.418-5.776h.001Z"/><path class="f" d="M441.74,299.08c1.806.054,17.523-.203,17.523.674v12.805c-2.579.559-.815-2.685-1.352-3.366-.411-.52-2.908,2.108-5.378,1.733-2.213-.336-4.808-3.378-6.713-4.132-4.34-1.718-11.7-2.467-15.537-7.041,3.978.054,7.561-.79,11.457-.674h0Z"/><path class="f" d="M412.759,278.861c1.897,1.622-.957,7.072,2.018,6.735.637-2.888-.531-11.019,2.022-12.123l-.67,25.606h-7.414c1.339-.485,3.259-.545,3.366-.679.611-.763.518-16.522.677-19.54h.001Z"/><path class="q" d="M431.63,278.187c-.263.303-.008,3.531-1.348,0h1.348Z"/><path class="r" d="M406.693,299.754v.674c-.259-.13-.947.087-1.348,0v-.674c.445-.025.908.046,1.348,0Z"/><path class="v" d="M242.245,228.313c-.493,2.318,2.283,1.05,3.376,1.344.17.114-.287,2.361.077,2.596,7.033,4.538,16.632,7.591,25.046,4.677,2.098-.727,3.651-4.604,6.232-5.225,2.459-.592,9.377-.048,12.446-.022-4.749,3.45-7.659,9.756-13.326,11.271-2.365.632-16.831-.025-19.26-.529-1.126-.501-3.206-2.383-5.83-1.98-.354-.754,1.399-5.25-2.022-3.37-3.254-3.125-7.653-5.186-10.11-9.436,1.055.11,2.4.292,3.37.674h.001Z"/><path class="v" d="M238.875,227.639c2.327,1.964,6.107,5.11,10.876,8.869,10.646,8.393,13.636,9.924,19.557,15.248,9.02,8.109,6.084,8.154,13.364,14.16,9.258,7.639,16.21,9.385,19.448,17.395,1.139,2.818,1.4,5.376,1.456,7.007-1.142-.08-4.591-.468-7.738-3.171-3.357-2.884-4.187-6.526-4.394-7.613-.701-.846-1.818-2.086-3.37-3.369-3.009-2.488-5.808-3.617-6.236-3.804-3.173-1.391-14.418-11.721-43.638-42.699-.193-.218-.572-.662-.648-1.322-.037-.321.044-.522-.026-.7h1.349Z"/><path class="z" d="M301.554,307.841c3.014-.537.727,4.566.674,6.066h-.674c-.075-2.012.108-4.057,0-6.066Z"/><path class="t" d="M330.535,109.695c5.12,5.957,5.578,2.996,11.743,4.095,6.699,1.194,8.735,4.791,14.542-2.747.051.554.067,1.092.674,1.348-.083,2.672-.108,5.461-.059,8.36.045,2.653.149,5.212.299,7.67-.232,3.202-.389,6.578-.44,10.114-.059,4.04.025,7.878.211,11.493-15.793,3.045-22.317,4.809-24.395,5.877-.4.206-1.841,1.005-3.07.463-.875-.386-1.317-1.307-1.87-2.463-.596-1.244-.868-2.354-1.004-3.097.023-1.935.108-4.626.376-7.829.263-3.157.646-6.112,1.097-8.845.873-3.362,1.672-7.471,2.035-12.191.359-4.672.204-8.816-.137-12.246l-.002-.002Z"/><path class="t" d="M330.535,109.695c-.035-2.693-2.184-19.413-1.352-20.223.992-.965,26.662-2.327,27.64-1.348.591,4.958-.276,17.109-.004,22.919-5.806,7.538-7.842,3.941-14.542,2.747-6.165-1.099-6.623,1.862-11.743-4.095h.001Z"/><path class="ac" d="M244.267,354.345c-.558,2.265,2.164,1.129,4.044,1.348,17.491,2.036,37.689,9.235,53.917.674,1.076.902,2.202,1.918,3.35,3.055,1.276,1.265,2.402,2.506,3.39,3.684,5.155,4.7,13.322,11.209,20.219,12.805,12.034,22.474,31.027,40.493,47.178,59.983-41.044,5.72-85.604-3.314-115.922-31.003-4.601-7.21-9.599-16.347-13.879-27.371-3.342-8.607-5.562-16.6-7.061-23.569,1.009.2,2.155.351,3.416.392.467.015.917.014,1.348,0v.002ZM302.902,427.133v-14.49c-4.07-10.291-19.744-9.126-28.495-11.943-.574-.166-5.765-5.906-5.89-2.202-.075,2.236,29.202,27.377,34.385,28.635h0Z"/><path class="w" d="M387.148,370.52c9.371-4.083,10.246-11.961,17.438-13.562,10.727-2.389,26.567,11.174,26.146,22.782-.042,1.148-.237,2.134-.45,2.912-4.63,8.683-2.371,23.48,10.11,18.197-8.786,9.849-17.601,16.258-23.984,20.231-18.232,11.348-34.615,14.02-38.016,14.533-.849.128-1.551.222-2.019.282-.069-.491-.167-1.208-.282-2.073-.558-4.204-1.774-13.371-2.187-22.784-.364-8.308-.086-25.165-.236-28.385-.072-1.55.574-2.338-1.347-2.022-.163-.493-.29-.969-.674-1.348-.137-.225-.274-.45-.411-.676.31-.634.871-1.561,1.859-2.349.712-.568,1.375-.847,2.032-1.105,1.937-.76,2.906-1.14,4.597-1.517,1.759-.392,3.583-1.441,7.424-3.114v-.002Z"/><path class="i" d="M236.18,290.992l2.71,25.596c10.698,2.264,5.065-8.167,6.352-10.772,1.513-3.062,6.958.976,2.396-6.062,11.18,11.215,43.494,44.375,53.917,55.265-20.007.388-39.999-.481-59.983-.674-1.092-.032-3.493-.642-4.718-.674-.128-.003-.739-.659-1.348-.674,3.966-1.52,1.934-2.179,2.022-3.37.007-19.497-.967-39.19-1.348-58.635h0ZM240.219,317.955c-.061-.073-1.208-.283-1.348.341-.45,2.002,2.404.912,1.348-.341Z"/><path class="b" d="M329.187,375.912c5.806,1.013,14.525,2.177,25.211,2.19,11.793.015,16.18-1.384,19.434,1.778,3.896,3.785-.232,7.888.283,28.402.354,14.074,2.024,23.8,2.249,25.59.018.14-.012.628.181,1.215.115.349.261.61.348.753l-.53.055c-16.151-19.49-35.144-37.51-47.178-59.983h.002Z"/><path class="z" d="M399.28,358.389c-1.436,1.433-2.511,2.176-4.044,3.37l-33.02-.004c-1.116.121-1.439-.036-1.514-.214-.314-.739,3.33-3.044,6.213-4.4,2.478-1.166,4.672-1.761,6.161-2.083,8.734,1.11,17.469,2.221,26.204,3.331h0Z"/><path class="ab" d="M403.998,355.693c.172.565-.445,1.622-.674,2.022-1.189,2.075-2.505,3.934-4.107,5.646-3.201,3.42-6.646,5.252-7.261,5.632-14.307,8.837-17.191,10.731-20.55,9.485-1.177-.436-2.02-1.113-2.535-1.597,6.074-2.131,10.993-4.649,14.693-6.84,2.769-1.639,7.014-4.153,11.236-8.002l4.928-4.558h0c.946-.98,1.707-1.835,2.249-2.463.752-.12,1.356.364,2.022.674h-.001Z"/><path class="d" d="M308.968,362.433c.11.086,3.305.328,0,.674v-.674Z"/><path class="i" d="M238.876,288.296v.674c2.286,3.927,6.269,6.939,8.762,10.783,4.562,7.038-.883,3-2.396,6.062-1.287,2.605,4.346,13.036-6.352,10.772l-2.71-25.596c-.012-.449.012-.899,0-1.348l2.696-1.348h0Z"/><path class="t" d="M357.097,120.952c.982.064,2.444.09,4.183-.158,3.492-.498,4.834-1.951,7.39-2.083,2.793-.144,5.077.339,7.393.993,11.002,3.106,13.799,7.543,17.633,5.901,2.226-.953,2.794-3.096,6.007-3.607.582-.093,1.794-.389,3.793.274,1.422.472,8.294,4.442,8.786,4.458,5.289.171,8.998-8.514,14.141-9.25,4.651-.666,11.728,5.925,22.855,33.227,3.245.247,6.489.495,9.734.742-.14,4.967-.247,9.995-.318,15.081-.086,6.168-.116,12.251-.096,18.247-3.726-10.398-7.452-20.796-11.178-31.195-33.397,2.244-58.852,2.538-59.582-1.819-.558-3.33,13.268-10.406,12.524-11.403-.093-.124-.326-.151-.725-.058-4.342,1.658-16.289,17.668-23.937,13.473.426-2.139-1.069-1.145-2.696-1.348-3.511-.751-6.116-.749-9.436-.674-1.691-1.257-4.081-.542-6.066-.674-.365-4.351-.618-8.967-.712-13.824-.111-5.773.018-11.221.306-16.304h.001Z"/><path class="j" d="M405.345,301.776c4.65.547,46.939,46.984,54.591,52.569-11.913,2.123-45.716,2.91-56.613,0,.738-.962.444-1.23.674-2.022.184-.634.48-1.016.674-2.022,1.165-13.894,1.334-29.476.674-43.506-.042-1.292.685-2.705-1.348-2.324.018-.668-.061-1.361,0-2.022.395-.093,1.116-.701,1.348-.674h0Z"/><path class="i" d="M356.82,246.51c-.324,7.914-2.043,51.097-.004,52.573.348.252.715.457.715.457,1.421.794,2.823.953,3.774.965-2.618,1.097-5.237,2.195-7.855,3.292-2.356-.105-13.133-.207-14.394-.77-1.823-.814-.984-3.798-1.107-5.296-1.579-19.315.882-40.456-.674-59.983,1.538-.359,17.169,8.374,19.545,8.761h0Z"/><path class="r" d="M403.998,304.471c2.033-.381,1.306,1.031,1.349,2.324.441,13.287.847,28.325-.675,41.484-.942-14.5-1.069-29.28-.674-43.808Z"/><path class="r" d="M405.814,300.769c-.156.335-.312.671-.468,1.006-.232-.027-.953.581-1.348.674-.053-.077-.418-.617-.229-1.115.217-.571,1.107-.938,2.045-.566h0Z"/><path class="w" d="M403.998,355.019v.674c-.458-.203-.888-.479-1.348-.674.196-.244.485-.428.674-.674.115.272.387.631.674.674h0Z"/><path class="i" d="M375.691,303.797c-.224-.008-.45.008-.674,0h.674Z"/><path class="f" d="M401.302,241.118h-1.348c.446.024.905-.04,1.348,0Z"/><path class="f" d="M417.477,256.62c-.035-.444.037-.904,0-1.348v1.348Z"/><path class="w" d="M460.629,354.242c-3.568,2.791-7.399,6.144-11.261,10.147-2.192,2.272-4.164,4.515-5.934,6.68-.308,1.128-1.03,3.034-2.806,4.292-1.452,1.029-2.959,1.226-3.607,1.225-16.135-.027-29.184-5.895-32.628-15.486-.629-1.75-1.065-3.981-.873-6.759,8.353,1.089,17.93,1.845,28.514,1.829,10.619-.016,20.223-.807,28.594-1.928h0Z"/><path class="w" d="M459.963,378.028c-1.992,3.409-4.472,7.185-7.543,11.111-2.962,3.786-5.92,7-8.658,9.688-4.868,4.125-7.905,5.748-9.109,4.866-.65-.476-.766-1.683-.348-3.619,16.389-14.162,21.914-20.571,23.478-23.67.239-.474,1.381-2.843,1.981-2.674.563.158.403,2.478.199,4.298h0Z"/><path class="w" d="M443.762,398.827c-11.583,15.115-29.688,23.956-47.178,30.329,17.733-7.554,33.155-18.01,47.178-31.003v.674h0Z"/><path class="z" d="M382.431,245.836c4.797-.04,9.63-.058,14.5-.055,5.606.004,11.165.037,16.675.098-.08.812-.237,1.561-.448,2.253-2.562,8.38-14.049,11.274-16.574,11.858-6.39,5.152-8.696,5.586-9.506,4.862-1.014-.906,2.698-6.47-.218-10.302-.325-.428-8.008-1.871-8.466-5.692-.306-2.551,5.043,1.01,4.037-3.022h0Z"/><path class="r" d="M343.996,150.812c5.865-1.716,18.682-5.467,32.289.085,3.438,1.403,9.171,4.315,14.794,10.444,1.901,2.044,3.835,4.276,5.764,6.706,4.365,5.499,7.799,10.878,10.505,15.789l14.827-10.783c-2.126,2.703-3.001,7.335-3.284,7.664-.994,1.156-4.519-.163-4.126,2.441,13.963-1.357,27.927-2.715,41.89-4.072.688,1.92,1.376,3.84,2.064,5.761.026,2.691.051,5.382.077,8.074-17.949.615-28.389.646-34.674.551,0,0-13.048-.199-22.84-.199h-3.37c-1.568-.047-3.15.061-4.718,0,1.414-5.028-5.218-1.618-6.701-2.738-.375-.283-1.715-7.054-2.836-8.955-1.046-1.773-7.496-10.077-9.002-11.217-5.056-3.628-7.389-2.254-11.789-3.375l-4.044-2.022c-1.573-.449-3.145-.899-4.718-1.348-1.304-.206-3.156-.467-5.392-.674-3.575-.331-5.362-.496-7.249-.311-3.037.298-3.746,1.009-6.905.985-2.873-.022-3.649-.626-3.916-.847-1.344-1.116-1.67-3.362-1-5.619,3.196-1.942,8.053-4.496,14.351-6.339h.003Z"/><path class="o" d="M327.165,156.873c1.724-.724,4.166-1.322,6.062-1.339-4.034,3.538-1.213,5.676,2.026,8.079-5.986,1.783-17.566,11.337-20.893,16.849-1.467-.883-4.711,2.188-5.046,2.028-.944-.45.807-4.686-3.715.668,2.337-11.107,11.485-21.478,21.567-26.285h-.001Z"/><path class="o" d="M348.2,162.81c-.078-.007-.08-.118-.003-.131,3.704-.611,9.132-.939,14.703.889,5.567,1.826,10.921,5.687,12.354,6.721.043.031.065.046.094.068,1.309.99,5.821,4.422,9.002,11.217,2.399,5.124,1.66,7.036,3.747,8.043,2.144,1.035,4.608-.172,5.667,1.382.435.638.574,1.653.138,2.215-.392.505-1.135.512-1.918.509-3.559-.014-5.376-.032-7.219-.545-1.629-.453-2.338-.874-2.888-1.438-.156-.16-.428-.461-.999-1.495-.81-1.464-1.24-2.623-1.573-3.466,0,0-.563-1.427-1.613-3.665-1.126-2.4-2.377-4.027-3.366-5.42-3.214-4.526-6.988-7.457-9.122-8.911-6.511-4.435-13.18-5.621-17.004-5.973h0Z"/><path class="o" d="M458.589,192.593c-.708,1.227-24.164.636-27.633.674l27.633-.674Z"/><path class="o" d="M358.168,164.286l-2.022-.674c1.667.332,1.918.652,2.022.674Z"/><path class="o" d="M412.085,193.267c-1.123-.012-2.247.015-3.37,0h3.37Z"/><path class="o" d="M406.693,193.267h-2.022c.641.011,1.324-.011,2.022,0Z"/><path class="o" d="M337.949,163.612l.674-.674c-.186.03-.47.632-.674.674Z"/><path class="o" d="M341.993,162.938c-.224.015-.451-.019-.674,0h.674Z"/><path class="i" d="M240.223,193.941c3.8,4.486,7.207,9.372,11.457,13.479v.674c3.691,5.317,12.227,14.429,14.827,20.219-10.188,2.131-19.106-.193-28.981-.674-2.576-9.277-1.086-23.67.674-33.698.663-.054,1.366.081,2.022,0h0Z"/><path class="g" d="M251.952,164.998c9.204,7.376,19.066,13.479,18.114,15.041-.538.584-4.359-.048-5.733,2.738-2.237,3.307-18.155,18.859-26.132,11.163-.333-.964-.76-2.412-1.005-4.204-.715-5.239.694-9.257,1.439-11.911.986-3.515,1.934-8.661,1.587-15.561,3.711-1.901,10.039.79,11.729,2.734h0Z"/><path class="r" d="M246.289,148.785l.674-.674c-.152.274-.554.462-.674.674Z"/><path class="w" d="M242.919,292.34c2.237-.327,2.754,2.013,4.718,2.696.06.372-.09,1.292,0,1.348.252.156,2.015-.052,2.696,0,.252.427.402.935.674,1.348h-2.696c-1.032-2.385-3.188-3.158-5.392-5.392Z"/><path class="w" d="M247.637,295.036c1.53.532,4.651-1.185,4.044,1.348-1.045-.075-3.276.149-4.044,0-.09-.056.06-.976,0-1.348Z"/><path class="v" d="M251.007,239.097c-1.107-.288-1.429-1.453-2.022-2.022,3.067-1.704,1.918,1.863,2.022,2.022Z"/><path class="r" d="M279.314,190.571c5.287,4.849,10.465,9.721,15.501,14.827-5.334-4.427-11.958-9.251-15.501-14.827Z"/><path class="j" d="M294.815,205.398c2.155,1.788,5.119,3.031,6.066,6.066-2.481-1.616-4.048-4.02-6.066-6.066Z"/><path class="i" d="M290.771,278.861l-.674-.674c.252.175.428.489.674.674Z"/><path class="i" d="M289.423,277.513l-.674-.674c.25.15.427.522.674.674Z"/><path class="q" d="M379.433,152.401c13.326-8.449,18.589-12.052,19.495-13.01.141-.149.774-.865,1.346-.718,0,0,.515.132.781,1.088.174.624-.365,2.66-12.212,10.521,3.029.399,6.059.799,9.088,1.199-2.763-.123-5.062-.073-6.737.006-3.834.181-4.859.536-5.394,1.342-.71,1.07-.304,2.552,0,3.37-.979-.541-1.976-1.111-2.988-1.712-1.171-.695-2.298-1.392-3.379-2.085h0Z"/><path class="q" d="M449.153,150.807c.097.598-1.849.567-1.348,2.696-1.637.086-4.186,1.72-5.392,2.696v-4.044l-41.786-.674c16.068-.874,32.433-1.158,48.526-.674Z"/><path class="x" d="M447.805,153.503c1.305,5.546,5.958,25.428,8.762,28.981l-41.108.67c-.393-2.605,3.131-1.285,4.126-2.441.98-9.104,15.629-18.468,22.829-24.513,1.205-.976,3.754-2.61,5.391-2.696h0Z"/><path class="ac" d="M302.902,427.133c-5.183-1.258-34.46-26.399-34.385-28.635.125-3.704,5.316,2.036,5.89,2.202,8.742,2.812,24.434,1.655,28.496,11.942v14.491h-.001Z"/><path class="ac" d="M301.554,355.019c.287.283.392,1.068.674,1.348-16.228,8.561-36.427,1.362-53.917-.674v-1.348c17.735.604,35.488.885,53.243.674h0Z"/><path class="ac" d="M248.311,354.345v1.348c-1.88-.219-4.602.917-4.044-1.348,1.345.041,2.699-.046,4.044,0Z"/><path class="i" d="M240.219,317.955c1.057,1.253-1.798,2.343-1.348.341.14-.624,1.287-.414,1.348-.341Z"/><path class="w" d="M405.345,356.367l3.37,3.37c-2.718-.587-2.628-2.491-5.392-2.022.048-.058.608-1.172.674-1.348h1.348Z"/><path class="r" d="M394.562,167.656c.383-.865.711-1.199,1.022-1.218.787-.048,1.533,1.378,1.647,1.582,1.789,3.192,18.587,1.474,26.072,1.46,0,0,14.469-.026,34.616,15.028.182.136.515.423.563.825.176,1.482-3.569,3.016-4.926,3.24-4.848.8-47.278.227-49.733-1.372-.906-.59-7.189-16.21-9.26-19.545h0Z"/><path class="x" d="M354.798,150.133c-.223.019-.451-.018-.674,0h.674Z"/><path class="z" d="M279.988,220.899c-4.587,2.177-8.368,6.141-13.479,7.414-.963-3.201-3.699-5.359-5.392-8.088-.034-.054.877-.622.548-1.151-.66-1.059-7.404-7.461-4.264-7.613,1.304-.063,11.139,5.519,13.82,6.411,2.936.976,6.808-.546,8.767,3.028h0Z"/><path class="ab" d="M251.681,208.094v-.674c.288.317.363.336,0,.674Z"/><path class="w" d="M303.576,290.318l-1.56,33.523-54.38-24.087-9.201-10.188.44-1.269,64.701,2.022h0Z"/><path class="g" d="M237.528,227.639l-1.348,62.005c22.488.294,44.976.589,67.463.883-22.039-20.963-44.077-41.925-66.116-62.888h0Z"/><path class="s" d="M256.52,126.308c.206.126-.703,1.755.019,2.491.24.245.688.417,1.57.265-1.495,2.648-3.025,5.317-4.591,8.006-1.511,2.595-3.023,5.153-4.534,7.672-.899,1.348-1.797,2.696-2.696,4.044-7.673,22.572-8.723,36.46-8.087,45.156.114,1.564.51,6.058.67,12.443.249,9.901-.227,17.98-.671,23.277-.306,9.989-1.613,21.853-1.348,31.677-.229,8.817-.458,17.635-.687,26.452-1.049.108-2.098.215-3.148.323-.055-.996-.412-7.494-.467-8.499-3.041-55.229-4.489-79.112.303-105.087.377-2.043.713-3.781,1.302-6.197,1.197-4.91,21.376-42.627,22.363-42.022h.002Z"/><polygon class="v" points="238.876 227.639 306.947 217.53 307.62 232.357 258.607 240.704 238.876 227.639"/><path class="z" d="M241.868,195.802l25.719-15.575,39.361,37.304c-4.931,2.588-12.99,6.03-23.471,7.178-8.227.901-15.171.084-20.036-.885-7.191-9.341-14.382-18.681-21.573-28.022h0Z"/><path class="r" d="M267.587,180.226l39.361,37.304c-.681-7.686-.447-15.883,1.213-24.394.116-.595.238-1.185.365-1.77.176-.461.362-.926.557-1.393,1.512-3.617,3.344-6.775,5.277-9.511-5.678,2.265-11.356,4.53-17.034,6.795l-27.259-7.217-2.48.187h0Z"/><path class="r" d="M314.36,180.461c-2.711-.014-5.422-.027-8.133-.041-12.88-.065-25.76-.13-38.64-.194,6.845,4.037,13.69,8.075,20.536,12.113l26.237-11.877h0Z"/><polygon class="g" points="243.497 157.033 272.336 180.35 267.587 180.226 262.464 183.156 241.511 164.896 243.497 157.033"/><path class="x" d="M447.857,153.499c3.583,10.361,7.166,20.722,10.749,31.082-16.884-.241-33.767-.482-50.651-.723,13.301-10.12,26.601-20.24,39.902-30.36h0Z"/><path class="t" d="M280.616,112.643c7.694,3.951,12.883,8.307,16.249,11.639,11.417,11.298,15.634,15.774,15.634,15.774,3.008,3.192,5.221,5.631,7.683,5.176,3.129-.579,5.191-5.364,5.588-8.138.585-4.091,1.073-8.374,1.427-12.837.954-12.003.768-23.044-.02-32.873-15.521,7.086-31.041,14.173-46.562,21.259h0Z"/><path class="q" d="M379.366,152.514c9.53,10.448,19.06,20.896,28.589,31.345l39.902-30.36c1.06-1.458,1.43-2.702,1.11-3.731-1.782-5.737-24.983-4.822-69.601,2.746h0Z"/></svg>